<?xml version="1.0" encoding="utf-8" ?>
<svg baseProfile="full" height="100%" version="1.1" viewBox="0,0,1000,300" width="100%" xmlns="http://www.w3.org/2000/svg" xmlns:ev="http://www.w3.org/2001/xml-events" xmlns:xlink="http://www.w3.org/1999/xlink"><defs /><rect fill="white" height="300" width="1000" x="0" y="0" /><path d="M0,0 M377.0787048339844,50.149322509765625 L377.0894775390625,49.998268127441406 L377.08721923828125,49.8599853515625 L377.0567321777344,49.891685485839844 L376.9798889160156,50.302513122558594 L376.8611755371094,51.23119354248047 L376.6969299316406,52.71930694580078 L376.4919128417969,54.728878021240234 L376.23724365234375,57.178855895996094 L375.9346923828125,59.93049240112305 L375.5999755859375,62.81956481933594 L375.29888916015625,65.66312408447266 L375.1075744628906,68.2066879272461 L375.0842590332031,70.20831298828125 L375.2333068847656,71.5205078125 L375.443359375,72.17933654785156 L375.6126403808594,72.38214874267578 M375.4266052246094,46.776451110839844 L375.4022521972656,47.12839126586914 L375.40533447265625,47.899208068847656 L375.4903869628906,49.12671661376953 L375.724853515625,50.6807861328125 L376.14154052734375,52.35356903076172 L376.774658203125,53.9498176574707 L377.6246032714844,55.290584564208984 L378.6739501953125,56.2443733215332 L379.8906555175781,56.701080322265625 L381.2447204589844,56.59779739379883 L382.69915771484375,55.92511749267578 L384.23284912109375,54.763492584228516 L385.8077697753906,53.228736877441406 L387.3813781738281,51.47534942626953 L388.8758544921875,49.660003662109375 L390.18994140625,47.957305908203125 L391.2451171875,46.52609634399414 L391.990966796875,45.50410079956055 L392.423095703125,45.0 L392.5843505859375,45.10712432861328 L392.5229797363281,45.88591766357422 L392.2574462890625,47.36903762817383 L391.8395080566406,49.49950408935547 L391.3224182128906,52.14231872558594 L390.7791442871094,55.11460876464844 L390.28887939453125,58.21290969848633 L389.9276123046875,61.23481750488281 L389.75067138671875,63.99861526489258 L389.784423828125,66.31390380859375 L390.0145263671875,68.05725860595703 L390.30023193359375,69.13858795166016 L390.5260009765625,69.6496810913086 M400.3826599121094,59.315635681152344 L400.142333984375,59.07011032104492 L399.684814453125,58.779685974121094 L398.98785400390625,58.6109733581543 L398.0909423828125,58.78445053100586 L397.041259765625,59.39970016479492 L395.925048828125,60.481082916259766 L394.8575439453125,61.95264434814453 L393.97015380859375,63.68359375 L393.36328125,65.48101806640625 L393.0955810546875,67.13606262207031 L393.2100830078125,68.46549224853516 L393.70941162109375,69.32006072998047 L394.5498352050781,69.59992980957031 L395.6553039550781,69.2735366821289 L396.90643310546875,68.3613052368164 L398.17633056640625,66.96134948730469 L399.3726806640625,65.23626708984375 L400.42144775390625,63.375308990478516 L401.26123046875,61.5848388671875 L401.8741455078125,60.051597595214844 L402.2457580566406,58.91082000732422 L402.39141845703125,58.25670623779297 L402.3683166503906,58.1453971862793 L402.2221374511719,58.59964370727539 L402.002685546875,59.616600036621094 L401.77044677734375,61.12351608276367 L401.572509765625,62.989315032958984 L401.47271728515625,65.02719116210938 L401.5188903808594,66.99705505371094 L401.71405029296875,68.68270874023438 L401.95263671875,69.84717559814453 L402.1446228027344,70.45948028564453 M408.3341979980469,48.863189697265625 L408.3131408691406,49.206085205078125 L408.2301940917969,50.022430419921875 L408.05181884765625,51.418846130371094 L407.774658203125,53.33930206298828 L407.4358215332031,55.63728713989258 L407.08319091796875,58.14616775512695 L406.77313232421875,60.700279235839844 L406.5360107421875,63.129512786865234 L406.385009765625,65.25244903564453 L406.32659912109375,66.91695404052734 L406.34613037109375,68.01910400390625 L406.44091796875,68.53795623779297 L406.6278076171875,68.50169372558594 L406.93438720703125,67.94090270996094 L407.40380859375,66.91458129882812 L408.07373046875,65.53887939453125 L408.94091796875,63.9527702331543 L409.994873046875,62.308414459228516 L411.194091796875,60.74567794799805 L412.451904296875,59.36301803588867 L413.63372802734375,58.245121002197266 L414.60693359375,57.4478759765625 L415.2730407714844,56.9721794128418 L415.5895690917969,56.78694152832031 L415.548828125,56.844852447509766 L415.15899658203125,57.128807067871094 L414.421875,57.6428337097168 L413.3976135253906,58.372127532958984 L412.21014404296875,59.26485824584961 L410.99652099609375,60.25774383544922 L409.8799743652344,61.28144836425781 L408.9639892578125,62.30471420288086 L408.3166809082031,63.32080078125 L407.9927978515625,64.32644653320312 L408.0344543457031,65.29830932617188 L408.4273681640625,66.20050811767578 L409.1279296875,66.97386169433594 L410.07305908203125,67.5467529296875 L411.1995849609375,67.88046264648438 L412.4425964355469,67.94629669189453 L413.752197265625,67.73526000976562 L415.066162109375,67.25312805175781 L416.3394775390625,66.5039291381836 L417.5179443359375,65.48761749267578 L418.56243896484375,64.249755859375 L419.43157958984375,62.868927001953125 L420.0947570800781,61.49357986450195 L420.5408935546875,60.28297424316406 L420.7808837890625,59.37406539916992 L420.836669921875,58.84890365600586 L420.7578125,58.744754791259766 L420.5862731933594,59.07678985595703 L420.355224609375,59.86737060546875 L420.1112976074219,61.07425308227539 L419.89111328125,62.593624114990234 L419.72613525390625,64.2473373413086 L419.66473388671875,65.8340835571289 L419.71392822265625,67.18392181396484 L419.8650207519531,68.21923828125 L420.1103820800781,68.8156509399414 L420.4216613769531,68.91783142089844 L420.7569580078125,68.51898193359375 L421.0408935546875,67.92520904541016 L421.22003173828125,67.40228271484375 M420.9471435546875,51.68873977661133 L420.9832763671875,51.505760192871094 L421.0370178222656,51.31420135498047 L421.0894470214844,51.172340393066406 L421.1217346191406,51.13844299316406 M425.73504638671875,59.378761291503906 L425.6898193359375,59.904239654541016 L425.5765075683594,60.84805679321289 L425.38604736328125,62.1729736328125 L425.13018798828125,63.68260955810547 L424.8386535644531,65.25264739990234 L424.5647888183594,66.73944854736328 L424.34820556640625,68.02276611328125 L424.1985168457031,68.97743225097656 L424.12548828125,69.51374053955078 L424.1142272949219,69.56246185302734 L424.1693115234375,69.10169219970703 L424.32666015625,68.14193725585938 L424.629150390625,66.7660140991211 L425.1239318847656,65.12138366699219 L425.8429870605469,63.37934875488281 L426.77728271484375,61.706947326660156 L427.8924255371094,60.24968338012695 L429.12860107421875,59.112693786621094 L430.3914794921875,58.38676071166992 L431.58575439453125,58.13831329345703 L432.605224609375,58.39396667480469 L433.36859130859375,59.147701263427734 L433.82769775390625,60.33891296386719 L433.9969787597656,61.86394119262695 L433.9175109863281,63.56895065307617 L433.67669677734375,65.27880859375 L433.3530578613281,66.83259582519531 L433.08831787109375,68.06491088867188 L432.99462890625,68.85562133789062 L433.1604919433594,69.1791763305664 L433.45135498046875,69.18389892578125 L433.73114013671875,69.05492401123047 M442.8510437011719,61.270999908447266 L442.75146484375,60.77134704589844 L442.479248046875,60.05215835571289 L441.9659729003906,59.3199577331543 L441.20111083984375,58.888671875 L440.23126220703125,58.8872184753418 L439.1419372558594,59.364051818847656 L438.0683898925781,60.276241302490234 L437.1469421386719,61.53601837158203 L436.51824951171875,62.997806549072266 L436.30999755859375,64.47157287597656 L436.59765625,65.7644271850586 L437.3821105957031,66.71688079833984 L438.5997314453125,67.21929931640625 L440.1122741699219,67.21942138671875 L441.73968505859375,66.72601318359375 L443.296875,65.80048370361328 L444.61431884765625,64.5582275390625 L445.5730895996094,63.172733306884766 L446.1232604980469,61.8135871887207 L446.27880859375,60.64714813232422 L446.11651611328125,59.80369186401367 L445.7469177246094,59.38664245605469 L445.28009033203125,59.457820892333984 L444.8233642578125,60.0635871887207 L444.46099853515625,61.19162368774414 L444.23614501953125,62.79067611694336 L444.1760559082031,64.78067016601562 L444.2622985839844,67.07981872558594 L444.4425964355469,69.57998657226562 L444.64398193359375,72.17286682128906 L444.7618408203125,74.72954559326172 L444.694091796875,77.10525512695312 L444.38250732421875,79.18440246582031 L443.7976379394531,80.88197326660156 L442.9712829589844,82.14363861083984 L441.96429443359375,82.94874572753906 L440.8388366699219,83.29705810546875 L439.6728210449219,83.19113159179688 L438.5733337402344,82.67044067382812 L437.6507568359375,81.7890396118164 L437.02569580078125,80.62992858886719 L436.78662109375,79.29692077636719 L436.9697570800781,77.89280700683594 L437.5516052246094,76.4988784790039 L438.5046691894531,75.19342803955078 L439.7760009765625,74.03341674804688 L441.3304443359375,73.0496826171875 L443.05621337890625,72.2646255493164 L444.7918701171875,71.6727294921875 L446.1530456542969,71.28958129882812 L446.9747314453125,71.09085083007812 M463.676025390625,58.8128776550293 L463.62030029296875,59.4145622253418 L463.5154113769531,60.48900604248047 L463.3634033203125,61.97482681274414 L463.1937255859375,63.647884368896484 L463.036865234375,65.37035369873047 L462.9056091308594,66.96772766113281 L462.8143005371094,68.31964874267578 L462.7666015625,69.30799865722656 L462.75213623046875,69.80902862548828 L462.7841796875,69.75784301757812 L462.8887939453125,69.12576293945312 L463.09588623046875,67.92376708984375 L463.451416015625,66.29670715332031 L463.9766845703125,64.4434585571289 L464.65191650390625,62.534122467041016 L465.46063232421875,60.75130081176758 L466.3685302734375,59.22151565551758 L467.3446350097656,58.03313446044922 L468.3671569824219,57.28929138183594 L469.3994445800781,57.05392074584961 L470.3816223144531,57.33317565917969 L471.2613525390625,58.105838775634766 L471.9739685058594,59.286888122558594 L472.4864501953125,60.75901794433594 L472.7848205566406,62.388694763183594 L472.88580322265625,64.0084228515625 L472.8397521972656,65.462158203125 L472.7096252441406,66.614013671875 L472.5479736328125,67.34355163574219 L472.40545654296875,67.57091522216797 L472.31475830078125,67.25900268554688 L472.3185729980469,66.39735412597656 L472.47650146484375,65.0633316040039 L472.83245849609375,63.39670944213867 L473.40374755859375,61.575252532958984 L474.177734375,59.79816818237305 L475.0881652832031,58.24039077758789 L476.0535888671875,57.04407501220703 L476.9898681640625,56.329044342041016 L477.8050537109375,56.16302490234375 L478.44488525390625,56.561180114746094 L478.90570068359375,57.49028778076172 L479.184326171875,58.84457015991211 L479.30889892578125,60.508419036865234 L479.3245849609375,62.2990837097168 L479.2568054199219,64.01008605957031 L479.1666259765625,65.30218505859375 L479.10137939453125,66.05442810058594 M483.0771484375,58.488014221191406 L483.166748046875,58.66080093383789 L483.3227233886719,59.07441711425781 L483.55029296875,59.79290771484375 L483.84039306640625,60.77607727050781 L484.2322998046875,61.94868469238281 L484.73028564453125,63.18793869018555 L485.33197021484375,64.35952758789062 L486.04339599609375,65.31222534179688 L486.8445129394531,65.92948150634766 L487.6912841796875,66.14392852783203 L488.4025573730469,66.0966567993164 L488.8621826171875,65.95159912109375 M491.84600830078125,59.91152572631836 L491.6604309082031,60.151241302490234 L491.2825012207031,60.69328689575195 L490.68994140625,61.612152099609375 L489.92303466796875,62.894779205322266 L489.0233154296875,64.51579284667969 L488.0365295410156,66.39907836914062 L487.01568603515625,68.47087097167969 L485.99871826171875,70.66822052001953 L485.0350036621094,72.900634765625 L484.1689453125,75.05647277832031 L483.47625732421875,76.98273468017578 L483.0177307128906,78.50634765625 L482.832275390625,79.51321411132812 L482.83184814453125,80.02903747558594 L482.9139099121094,80.19435119628906 M502.0341796875,57.28375244140625 L502.05126953125,56.97845458984375 L502.08123779296875,56.63218688964844 L502.0962219238281,56.45456314086914 L502.05889892578125,56.71378707885742 L501.9322814941406,57.51420593261719 L501.7235107421875,58.860382080078125 L501.4603271484375,60.61994934082031 L501.22344970703125,62.6154899597168 L501.0872802734375,64.60485076904297 L501.1214904785156,66.3503189086914 L501.36956787109375,67.66184997558594 L501.8477783203125,68.41229248046875 L502.51171875,68.53108978271484 L503.31207275390625,68.0216064453125 L504.1733093261719,66.94857788085938 L505.0244140625,65.45101165771484 L505.81268310546875,63.70972442626953 L506.5006103515625,61.92257308959961 L507.0453796386719,60.27310562133789 L507.42645263671875,58.90587615966797 L507.6291809082031,57.92823028564453 L507.6640625,57.42776107788086 L507.57281494140625,57.45764923095703 L507.4023742675781,58.03207778930664 L507.202392578125,59.133541107177734 L507.0257568359375,60.66181182861328 L506.90985107421875,62.452484130859375 L506.9126892089844,64.3021240234375 L507.11480712890625,65.99168395996094 L507.55950927734375,67.31526947021484 L508.25787353515625,68.13202667236328 L509.176513671875,68.3497085571289 L510.2232971191406,67.9427719116211 L511.3023681640625,66.97183990478516 L512.3267822265625,65.5561294555664 L513.1990356445312,63.84636688232422 L513.8462524414062,62.01378631591797 L514.2424926757812,60.219642639160156 L514.4005737304688,58.58943557739258 L514.3778686523438,57.249549865722656 L514.2507934570312,56.28183364868164 L514.08935546875,55.713623046875 L513.9556884765625,55.470794677734375 L513.8770751953125,55.42817687988281 M522.2945556640625,58.74150848388672 L522.1728515625,58.26185607910156 L521.9337158203125,57.561195373535156 L521.5405883789062,56.83060073852539 L520.9730224609375,56.38683319091797 L520.2052612304688,56.385684967041016 L519.2503662109375,56.91828155517578 L518.1826171875,57.9714241027832 L517.1444702148438,59.4624137878418 L516.2850341796875,61.21619415283203 L515.734375,63.01873779296875 L515.5740356445312,64.65248107910156 L515.8311767578125,65.9310531616211 L516.4972534179688,66.72966003417969 L517.5118408203125,66.96250915527344 L518.7651977539062,66.59230041503906 L520.1298828125,65.64923095703125 L521.4700927734375,64.24119567871094 L522.6669921875,62.54527282714844 L523.6351318359375,60.796730041503906 L524.333251953125,59.208641052246094 L524.746337890625,57.942237854003906 L524.91064453125,57.108299255371094 L524.8779296875,56.78226089477539 L524.6951904296875,57.00330352783203 L524.3939208984375,57.786041259765625 L524.0439453125,59.07529067993164 L523.70849609375,60.71963119506836 L523.5205078125,62.52817153930664 L523.5742797851562,64.2711410522461 L523.9003295898438,65.74224090576172 L524.309814453125,66.74300384521484 L524.6486206054688,67.26763153076172 M530.2857666015625,57.65895080566406 L530.171142578125,57.412811279296875 L529.99365234375,57.219486236572266 L529.775390625,57.27974319458008 L529.56689453125,57.80288314819336 L529.4118041992188,58.77290344238281 L529.3811645507812,60.06904220581055 L529.5313110351562,61.47367477416992 L529.90576171875,62.79848098754883 L530.510498046875,63.84537124633789 L531.3221435546875,64.48490905761719 L532.3259887695312,64.63935089111328 L533.505859375,64.29216766357422 L534.8071899414062,63.473541259765625 L536.13037109375,62.2807731628418 L537.352783203125,60.859222412109375 L538.3521728515625,59.40711212158203 L539.05517578125,58.109893798828125 L539.4525146484375,57.123252868652344 L539.5538330078125,56.568016052246094 L539.3912353515625,56.531227111816406 L539.0105590820312,57.060325622558594 L538.4789428710938,58.17471694946289 L537.8894653320312,59.809879302978516 L537.350830078125,61.854957580566406 L536.9241943359375,64.18296813964844 L536.6324462890625,66.66024780273438 L536.4518432617188,69.16007995605469 L536.3401489257812,71.5533218383789 L536.25244140625,73.68769836425781 L536.153564453125,75.4384765625 L536.007080078125,76.72653198242188 L535.7569580078125,77.50840759277344 L535.355712890625,77.78678894042969 L534.7882690429688,77.58393096923828 L534.0872802734375,76.95588684082031 L533.3514404296875,75.9610824584961 L532.7232666015625,74.74100494384766 L532.2877197265625,73.45304107666016 L532.0621337890625,72.4162826538086 L531.9922485351562,71.7787094116211 M556.2430419921875,61.60798645019531 L556.1461181640625,61.2142448425293 L555.9180297851562,60.60271453857422 L555.4844970703125,59.88434982299805 L554.7906494140625,59.28669738769531 L553.8008422851562,58.963584899902344 L552.5189819335938,59.040199279785156 L551.0320434570312,59.595909118652344 L549.501708984375,60.647911071777344 L548.1201782226562,62.09163284301758 L547.0841064453125,63.746334075927734 L546.5469360351562,65.40634155273438 L546.5598754882812,66.86475372314453 L547.114990234375,67.96812438964844 L548.1326904296875,68.59940338134766 L549.4985961914062,68.67188262939453 L551.0792236328125,68.13082122802734 L552.755615234375,66.96011352539062 L554.4122314453125,65.19243621826172 L555.9744873046875,62.922386169433594 L557.3837890625,60.29853820800781 L558.6148681640625,57.508358001708984 L559.64453125,54.75720977783203 L560.473388671875,52.25773620605469 L561.1002807617188,50.182430267333984 L561.5299682617188,48.65280532836914 L561.7664184570312,47.750274658203125 L561.8336791992188,47.52082824707031 L561.7407836914062,47.98821258544922 L561.4994506835938,49.17558670043945 L561.1182861328125,51.04091262817383 L560.6165771484375,53.467323303222656 L560.0310668945312,56.27663803100586 L559.4473876953125,59.24690246582031 L558.9542236328125,62.133052825927734 L558.6334838867188,64.7257080078125 L558.6207275390625,66.80607604980469 L558.991455078125,68.22354125976562 L559.7326049804688,68.93968200683594 L560.5335083007812,69.14339447021484 L561.1430053710938,69.08295440673828 M568.73828125,59.109657287597656 L568.5154418945312,58.67148208618164 L568.043212890625,58.153377532958984 L567.291748046875,57.80785369873047 L566.30908203125,57.943519592285156 L565.1943969726562,58.62387466430664 L564.0889892578125,59.80022430419922 L563.15869140625,61.302703857421875 L562.585693359375,62.948089599609375 L562.5046997070312,64.50685119628906 L562.94482421875,65.76885223388672 L563.8646240234375,66.58512115478516 L565.1553955078125,66.863037109375 L566.6550903320312,66.56890106201172 L568.1875610351562,65.73820495605469 L569.556640625,64.464111328125 L570.5711669921875,62.90758514404297 L571.1053466796875,61.269447326660156 L571.1190185546875,59.738468170166016 L570.6672973632812,58.477081298828125 L569.9189453125,57.59087371826172 L569.08349609375,57.099308013916016 L568.4185791015625,56.912479400634766 L568.0338745117188,56.898921966552734 M575.3275756835938,56.89006805419922 L575.2294311523438,56.819252014160156 L575.0296630859375,56.91431427001953 L574.718505859375,57.35251998901367 L574.3311157226562,58.26307678222656 L573.9366455078125,59.58870315551758 L573.6096801757812,61.18845748901367 L573.4269409179688,62.881980895996094 L573.4581298828125,64.4907455444336 L573.7250366210938,65.83930206298828 L574.2247924804688,66.77022552490234 L574.9534301757812,67.15617370605469 L575.8656005859375,66.9275894165039 L576.9085693359375,66.10044860839844 L577.9981689453125,64.7763671875 L579.0178833007812,63.13228988647461 L579.8582763671875,61.39142608642578 L580.4569702148438,59.768280029296875 L580.7965698242188,58.42719268798828 L580.9190673828125,57.4813117980957 L580.8796997070312,57.02473449707031 L580.7357177734375,57.12947082519531 L580.5167846679688,57.84103775024414 L580.266357421875,59.11650085449219 L580.0496215820312,60.80042266845703 L579.9639282226562,62.63542175292969 L580.0965576171875,64.36862182617188 L580.5098876953125,65.78045654296875 L581.188720703125,66.7215347290039 L582.083740234375,67.09492492675781 L583.1077270507812,66.86869049072266 L584.1696166992188,66.0570297241211 L585.1771240234375,64.77407836914062 L586.0604248046875,63.191619873046875 L586.7710571289062,61.50845718383789 L587.3009033203125,59.907833099365234 L587.667724609375,58.55099868774414 L587.90234375,57.53458023071289 L588.0459594726562,56.90196990966797 L588.12451171875,56.59910202026367 L588.160888671875,56.51212692260742 M592.7208251953125,56.36555480957031 L592.6356201171875,56.444332122802734 L592.4732666015625,56.7637939453125 L592.224365234375,57.46226119995117 L591.8983154296875,58.605716705322266 L591.5083618164062,60.13490295410156 L591.0840454101562,61.9027214050293 L590.6854248046875,63.702247619628906 L590.3707885742188,65.3208999633789 L590.1844482421875,66.56587219238281 L590.14501953125,67.2984619140625 L590.2623901367188,67.44429016113281 L590.545166015625,66.9775161743164 L591.0100708007812,65.92774963378906 L591.6646118164062,64.40572357177734 L592.516357421875,62.584739685058594 L593.5634155273438,60.689456939697266 L594.781494140625,58.948638916015625 L596.103759765625,57.534507751464844 L597.4179077148438,56.5665168762207 L598.5886840820312,56.12351608276367 L599.4998779296875,56.23371505737305 L600.0814819335938,56.89282989501953 L600.3231811523438,58.06288146972656 L600.2599487304688,59.64100646972656 L599.9651489257812,61.47612762451172 L599.531005859375,63.39115524291992 L599.060546875,65.21480560302734 L598.69384765625,66.73221588134766 L598.5486450195312,67.7831802368164 L598.6829833984375,68.27608489990234 L598.957275390625,68.35382080078125 L599.2213745117188,68.22884368896484 M608.810302734375,47.720787048339844 L608.840576171875,47.78202438354492 L608.8391723632812,48.11701965332031 L608.759521484375,48.90308380126953 L608.5567626953125,50.227882385253906 L608.2313842773438,52.016021728515625 L607.8212890625,54.162841796875 L607.3846435546875,56.531707763671875 L606.9754638671875,58.98642349243164 L606.6436767578125,61.38370895385742 L606.4117431640625,63.55740737915039 L606.2828369140625,65.35585021972656 L606.2425537109375,66.61066436767578 L606.2611083984375,67.22517395019531 L606.3074951171875,67.20832061767578 L606.3516845703125,66.86119842529297 L606.3781127929688,66.4747085571289 M603.6239013671875,58.11912536621094 L603.8310546875,58.00824737548828 L604.332763671875,57.87024688720703 L605.2048950195312,57.76222229003906 L606.483154296875,57.757572174072266 L608.0858154296875,57.854854583740234 L609.8524169921875,58.01432418823242 L611.3280029296875,58.16133499145508 L612.2713623046875,58.256797790527344 M618.658203125,59.57538986206055 L618.45361328125,59.351966857910156 L618.0074462890625,59.082515716552734 L617.2608642578125,58.910030364990234 L616.239990234375,59.04352569580078 L615.00048828125,59.573814392089844 L613.689453125,60.52254104614258 L612.4966430664062,61.811038970947266 L611.615478515625,63.306983947753906 L611.2130126953125,64.81690979003906 L611.3818359375,66.1628646850586 L612.1006469726562,67.1766586303711 L613.267578125,67.73797607421875 L614.7223510742188,67.77599334716797 L616.263427734375,67.2720947265625 L617.7088012695312,66.2762680053711 L618.8887939453125,64.92131805419922 L619.66357421875,63.37412643432617 L619.9611206054688,61.832366943359375 L619.7921142578125,60.46257781982422 L619.26171875,59.37793731689453 L618.554931640625,58.63557052612305 L617.9385375976562,58.226280212402344 L617.550537109375,58.05989074707031 M623.9487915039062,58.306396484375 L623.9163208007812,58.05067443847656 L623.8447875976562,57.79972457885742 L623.69873046875,57.742095947265625 L623.455322265625,58.09857940673828 L623.10791015625,58.922733306884766 L622.7019653320312,60.17271041870117 L622.3216552734375,61.73321533203125 L622.0617065429688,63.457847595214844 L622.00390625,65.14845275878906 L622.1983642578125,66.59949493408203 L622.671875,67.64802551269531 L623.42041015625,68.16975402832031 L624.3960571289062,68.1050796508789 L625.5172119140625,67.4802474975586 L626.67626953125,66.39022827148438 L627.74853515625,64.9959716796875 L628.6385498046875,63.531532287597656 L629.3004760742188,62.2127799987793 L629.723388671875,61.19504165649414 L629.9239501953125,60.573116302490234 L629.9193115234375,60.3896598815918 L629.7378540039062,60.66487121582031 L629.419189453125,61.42118835449219 L629.0601196289062,62.601776123046875 L628.7840576171875,64.06097412109375 L628.6951904296875,65.57276153564453 L628.85791015625,66.9128189086914 L629.3009033203125,67.89991760253906 L629.9900512695312,68.43409729003906 L630.886474609375,68.46187591552734 L631.9334716796875,67.98831939697266 L633.0262451171875,67.05718231201172 L634.0511474609375,65.773681640625 L634.907470703125,64.2720718383789 L635.50927734375,62.705474853515625 L635.817626953125,61.20659637451172 L635.8636474609375,59.9033317565918 L635.71533203125,58.88460159301758 L635.5139770507812,58.23130416870117 L635.3602294921875,57.908966064453125 M640.6614990234375,59.874229431152344 L640.6717529296875,59.884246826171875 L640.6708984375,60.03506088256836 L640.6318969726562,60.443729400634766 L640.5192260742188,61.18986511230469 L640.322021484375,62.242919921875 L640.0570068359375,63.52688980102539 L639.7452392578125,64.90567779541016 L639.4415893554688,66.23407745361328 L639.18408203125,67.37959289550781 L638.9971923828125,68.2304916381836 L638.9019775390625,68.68863677978516 L638.9210205078125,68.69896697998047 L639.0713500976562,68.21868133544922 L639.3833618164062,67.25849914550781 L639.8822021484375,65.90563201904297 L640.5791015625,64.31000518798828 L641.4716796875,62.64197540283203 L642.5459594726562,61.067378997802734 L643.7634887695312,59.70981216430664 L645.06103515625,58.668880462646484 L646.3626098632812,58.01887130737305 L647.564453125,57.80503463745117 L648.58056640625,58.04161834716797 L649.3492431640625,58.712974548339844 L649.8326416015625,59.76115798950195 L650.0205078125,61.10270690917969 L649.9341430664062,62.60404968261719 L649.6153564453125,64.128173828125 L649.1651611328125,65.53401184082031 L648.6966552734375,66.71315002441406 L648.3385009765625,67.52243041992188 L648.1383056640625,67.95942687988281 " fill="none" stroke="black" stroke-linecap="round" stroke-width="2" /><path d="M0,0 M440.3244934082031,105.05328369140625 L440.3437194824219,105.304443359375 L440.3748779296875,105.93881225585938 L440.4239501953125,107.09375762939453 L440.4955749511719,108.7960205078125 L440.6053466796875,111.00212860107422 L440.7457275390625,113.60031127929688 L440.933349609375,116.45362854003906 L441.1755065917969,119.38846588134766 L441.5094299316406,122.18983459472656 L441.9681396484375,124.62493133544922 L442.5648498535156,126.48530578613281 L443.2705383300781,127.61087036132812 L444.0574035644531,127.91354370117188 L444.89215087890625,127.37740325927734 L445.7602844238281,126.06245422363281 L446.6390075683594,124.12897491455078 L447.4801025390625,121.79981231689453 L448.21966552734375,119.32402038574219 L448.7967834472656,116.9515380859375 L449.1945495605469,114.89601135253906 L449.42999267578125,113.3238754272461 L449.5541687011719,112.37258911132812 L449.6131896972656,112.11231231689453 L449.6452331542969,112.5587158203125 L449.66143798828125,113.69998168945312 L449.6867370605469,115.45027923583984 L449.7535400390625,117.65485382080078 L449.9259338378906,120.1076431274414 L450.2534484863281,122.54586791992188 L450.77447509765625,124.71365356445312 L451.4708557128906,126.4345703125 L452.2869567871094,127.57998657226562 L453.1455383300781,128.07228088378906 L453.99896240234375,127.88067626953125 L454.80029296875,126.97594451904297 L455.54425048828125,125.37328338623047 L456.2082214355469,123.17949676513672 L456.767578125,120.55368041992188 L457.18310546875,117.68453979492188 L457.44390869140625,114.77924346923828 L457.5318603515625,112.01760864257812 L457.4778747558594,109.56299591064453 L457.31866455078125,107.55669403076172 L457.12799072265625,106.19747161865234 L456.96392822265625,105.5909652709961 L456.8799743652344,105.73312377929688 L456.8606262207031,106.24604797363281 L456.8795166015625,106.76954650878906 M464.98944091796875,118.72638702392578 L464.8065185546875,118.10079193115234 L464.48614501953125,117.1663818359375 L464.0323486328125,116.14759826660156 L463.4790954589844,115.41529846191406 L462.82342529296875,115.14429473876953 L462.0792236328125,115.44749450683594 L461.2779541015625,116.34143829345703 L460.49273681640625,117.79955291748047 L459.8114013671875,119.68670654296875 L459.33184814453125,121.77677154541016 L459.142578125,123.79620361328125 L459.2865905761719,125.4836654663086 L459.7625732421875,126.63070678710938 L460.5124206542969,127.11100006103516 L461.4342346191406,126.86835479736328 L462.4158630371094,125.92802429199219 L463.3492431640625,124.39703369140625 L464.14776611328125,122.45954895019531 L464.765869140625,120.35211181640625 L465.1878356933594,118.32659912109375 L465.43402099609375,116.59354400634766 L465.53857421875,115.30947875976562 L465.553955078125,114.5921630859375 L465.5221862792969,114.49998474121094 L465.46697998046875,115.05933380126953 L465.40118408203125,116.23609161376953 L465.34381103515625,117.91224670410156 L465.32470703125,119.9173583984375 L465.3922119140625,122.06548309326172 L465.57110595703125,124.15711212158203 L465.87677001953125,126.04698181152344 L466.33074951171875,127.5251693725586 L466.9136962890625,128.42520141601562 L467.5866394042969,128.6823272705078 L468.1715393066406,128.53062438964844 L468.5539855957031,128.24156188964844 M471.698974609375,105.0 L471.73309326171875,105.1570053100586 L471.7750244140625,105.65632629394531 L471.80291748046875,106.65876007080078 L471.79644775390625,108.2160873413086 L471.7679443359375,110.26100158691406 L471.7445983886719,112.66705322265625 L471.7611389160156,115.2862548828125 L471.83917236328125,117.96553802490234 L471.9941101074219,120.53401947021484 L472.2220764160156,122.82078552246094 L472.5013427734375,124.70283508300781 L472.82598876953125,126.04820251464844 L473.1854248046875,126.80490112304688 L473.55938720703125,126.98799896240234 L473.87274169921875,126.83386993408203 L474.0797119140625,126.58427429199219 M478.1907653808594,105.11524200439453 L478.22509765625,105.26072692871094 L478.29168701171875,105.73487854003906 L478.3785400390625,106.69981384277344 L478.4623107910156,108.21956634521484 L478.5130615234375,110.23711395263672 L478.5055236816406,112.62843322753906 L478.4401550292969,115.23611450195312 L478.33636474609375,117.90338897705078 L478.2279968261719,120.48224639892578 L478.153076171875,122.80297088623047 L478.1197509765625,124.73965454101562 L478.1599426269531,126.14363098144531 L478.2916564941406,126.92789459228516 L478.53314208984375,127.11685180664062 L478.79547119140625,126.96739959716797 L479.0044250488281,126.72020721435547 M484.365234375,117.03788757324219 L484.26458740234375,116.91154479980469 L483.9504089355469,116.8541030883789 L483.3361511230469,117.02127838134766 L482.41448974609375,117.55374908447266 L481.2862548828125,118.432861328125 L480.1311950683594,119.58242797851562 L479.1675109863281,120.86420440673828 L478.56976318359375,122.15279388427734 L478.4664001464844,123.33560180664062 L478.9019470214844,124.31644439697266 L479.8493347167969,125.0347671508789 L481.2205505371094,125.46368408203125 L482.8951721191406,125.59947204589844 L484.73486328125,125.45747375488281 L486.6051025390625,125.04562377929688 L488.37225341796875,124.37266540527344 L489.92169189453125,123.45702362060547 L491.1659240722656,122.32565307617188 L492.0542297363281,121.0497055053711 L492.5810546875,119.73517608642578 L492.7993469238281,118.5145492553711 L492.7903137207031,117.51010131835938 L492.67034912109375,116.81050109863281 L492.56134033203125,116.48282623291016 L492.5378112792969,116.5705337524414 L492.61053466796875,117.09634399414062 L492.7527160644531,118.05860900878906 L492.91680908203125,119.37903594970703 L493.0812683105469,120.93108367919922 L493.2476806640625,122.57146453857422 L493.4172668457031,124.1182632446289 L493.58404541015625,125.40676879882812 L493.7339782714844,126.3247299194336 L493.84197998046875,126.83942413330078 L493.9031066894531,127.0380859375 M493.3874206542969,110.04867553710938 L493.42938232421875,110.0687484741211 L493.5252685546875,110.20336151123047 L493.6383056640625,110.39549255371094 L493.73162841796875,110.58815002441406 M498.3247985839844,118.15738677978516 L498.3045959472656,118.302734375 L498.26837158203125,118.6656265258789 L498.20794677734375,119.31346130371094 L498.150390625,120.24545288085938 L498.1071472167969,121.38103485107422 L498.1087646484375,122.613037109375 L498.1719970703125,123.81763458251953 L498.29083251953125,124.86868286132812 L498.43743896484375,125.67196655273438 L498.6126708984375,126.16056060791016 L498.7901916503906,126.2635726928711 L498.99188232421875,125.93838500976562 L499.2327880859375,125.17447662353516 L499.5262145996094,124.02021026611328 L499.8980712890625,122.59265899658203 L500.3937683105469,121.04267883300781 L501.0256652832031,119.5066146850586 L501.8218078613281,118.09663391113281 L502.7593688964844,116.91140747070312 L503.77777099609375,116.0452880859375 L504.7996520996094,115.57025146484375 L505.7596130371094,115.53418731689453 L506.5830993652344,115.94566345214844 L507.2384948730469,116.77735137939453 L507.7049560546875,117.9637451171875 L507.989501953125,119.40576171875 L508.10882568359375,120.9555435180664 L508.1399230957031,122.46855926513672 L508.15960693359375,123.80754852294922 L508.23980712890625,124.87705993652344 L508.3557434082031,125.57903289794922 L508.46881103515625,125.93911743164062 M517.9827880859375,118.0152816772461 L517.9530029296875,117.57487487792969 L517.781982421875,116.93836212158203 L517.3560791015625,116.28876495361328 L516.5958251953125,115.92108917236328 L515.5178833007812,115.97650146484375 L514.2323608398438,116.52819061279297 L512.917236328125,117.53216552734375 L511.7846984863281,118.89564514160156 L511.01239013671875,120.44635009765625 L510.71148681640625,121.98136901855469 L510.9208984375,123.30391693115234 L511.6214904785156,124.2594985961914 L512.7227783203125,124.73252868652344 L514.1160888671875,124.66980743408203 L515.6549072265625,124.06880187988281 L517.1680297851562,122.98443603515625 L518.502685546875,121.54663848876953 L519.5416259765625,119.94300079345703 L520.213134765625,118.37541198730469 L520.5357666015625,117.02269744873047 L520.5926513671875,116.00790405273438 L520.4910278320312,115.4051513671875 L520.3411865234375,115.27685546875 L520.211181640625,115.6688232421875 L520.14306640625,116.61311340332031 L520.150634765625,118.07465362548828 L520.24365234375,119.96337890625 L520.4034423828125,122.15780639648438 L520.5772705078125,124.533935546875 L520.681640625,126.97955322265625 L520.64599609375,129.4005126953125 L520.4072875976562,131.68545532226562 L519.93798828125,133.71224975585938 L519.2457275390625,135.37631225585938 L518.3626098632812,136.59671020507812 L517.3496704101562,137.3363037109375 L516.2899780273438,137.59706115722656 L515.276123046875,137.413330078125 L514.3862915039062,136.8219451904297 L513.7469482421875,135.8382110595703 L513.4490356445312,134.53842163085938 L513.52490234375,133.05828857421875 L513.79248046875,131.79623413085938 L514.0714111328125,130.9831085205078 M536.438232421875,126.89013671875 L536.5689697265625,126.48754119873047 L536.7913208007812,125.71109771728516 L537.0676879882812,124.53356170654297 L537.3077392578125,123.0191879272461 L537.450439453125,121.18737030029297 L537.4683227539062,119.08641052246094 L537.3735961914062,116.77717590332031 L537.21533203125,114.3758316040039 L537.053955078125,112.03300476074219 L536.9327392578125,109.89814758300781 L536.882080078125,108.10646057128906 L536.9012451171875,106.76468658447266 L536.9622802734375,105.96183776855469 L537.0354614257812,105.78392028808594 L537.084228515625,106.30792236328125 L537.08056640625,107.579833984375 L537.0274047851562,109.5687255859375 L536.9376220703125,112.15629577636719 L536.8450317382812,115.17473602294922 L536.799072265625,118.44027709960938 L536.830322265625,121.76109313964844 L536.9563598632812,124.95751953125 L537.1741333007812,127.84321594238281 L537.448486328125,130.20001220703125 L537.7418212890625,131.87255859375 L538.016357421875,132.82015991210938 L538.2164916992188,133.19326782226562 L538.3303833007812,133.2364501953125 M533.8387451171875,119.1831283569336 L534.1455078125,119.05240631103516 L534.7979125976562,118.85299682617188 L535.8466186523438,118.61498260498047 L537.2852783203125,118.39163208007812 L539.029296875,118.19586944580078 L540.917236328125,118.03884887695312 L542.483642578125,117.92963409423828 L543.4813232421875,117.87297821044922 M551.306884765625,116.71351623535156 L551.1387939453125,116.4659423828125 L550.748291015625,116.11688232421875 L550.0577392578125,115.80705261230469 L549.0657958984375,115.73712158203125 L547.8360595703125,116.02198028564453 L546.5064086914062,116.70098114013672 L545.24609375,117.73212432861328 L544.2308959960938,119.01356506347656 L543.5663452148438,120.40553283691406 L543.3222045898438,121.74034881591797 L543.5344848632812,122.85828399658203 L544.1878662109375,123.61994934082031 L545.2135009765625,123.93605041503906 L546.5071411132812,123.76365661621094 L547.8985595703125,123.11038970947266 L549.2390747070312,122.05170440673828 L550.4165649414062,120.70064544677734 L551.3674926757812,119.22791290283203 L552.05029296875,117.81745147705078 L552.4866943359375,116.63824462890625 L552.6944580078125,115.80607604980469 L552.721435546875,115.41105651855469 L552.622314453125,115.47911071777344 L552.4678344726562,116.03221130371094 L552.302001953125,117.03553771972656 L552.1949462890625,118.39874267578125 L552.179931640625,119.96627807617188 L552.3375854492188,121.58253479003906 L552.7071533203125,123.06082153320312 L553.2959594726562,124.27131652832031 L553.8878173828125,125.07918548583984 L554.3274536132812,125.49419403076172 M564.5284423828125,115.72444915771484 L564.3199462890625,115.37393951416016 L563.851806640625,114.91414642333984 L563.0651245117188,114.50469970703125 L562.0147705078125,114.35625457763672 L560.8355712890625,114.51339721679688 L559.7142944335938,114.95547485351562 L558.8667602539062,115.61573028564453 L558.4816284179688,116.4396743774414 L558.664306640625,117.35333251953125 L559.4434814453125,118.29058837890625 L560.7378540039062,119.21188354492188 L562.375732421875,120.0990982055664 L564.1080322265625,120.94932556152344 L565.6725463867188,121.76167297363281 L566.8326416015625,122.51956939697266 L567.4378662109375,123.19391632080078 L567.42822265625,123.75382995605469 L566.854736328125,124.1806869506836 L565.814453125,124.46002197265625 L564.4424438476562,124.5570068359375 L562.9261474609375,124.4612045288086 L561.4600219726562,124.18889617919922 L560.3460083007812,123.87578582763672 L559.7022705078125,123.6341552734375 M572.43798828125,105.2891845703125 L572.491455078125,105.37529754638672 L572.5728149414062,105.68924713134766 L572.6566162109375,106.3441390991211 L572.6969604492188,107.40419006347656 L572.6744384765625,108.84773254394531 L572.5834350585938,110.61856079101562 L572.448974609375,112.63963317871094 L572.3043212890625,114.81517791748047 L572.1795654296875,117.01077270507812 L572.0858154296875,119.09451293945312 L572.0387573242188,120.93836212158203 L572.031005859375,122.40572357177734 L572.0538940429688,123.39387512207031 L572.0888671875,123.86515808105469 L572.1190185546875,123.96038818359375 L572.132080078125,123.87403869628906 M569.168212890625,115.32601928710938 L569.2184448242188,115.2265853881836 L569.5442504882812,115.08056640625 L570.3296508789062,114.91152954101562 L571.7471313476562,114.74913787841797 L573.721435546875,114.59730529785156 L576.01611328125,114.43788146972656 L577.97509765625,114.2984848022461 L579.2378540039062,114.2050552368164 " fill="none" stroke="black" stroke-linecap="round" stroke-width="2" /><path d="M0,0 M456.5600280761719,170.747314453125 L456.4952087402344,171.45172119140625 L456.4313049316406,172.74131774902344 L456.4031982421875,174.59927368164062 L456.4573059082031,176.82113647460938 L456.5857849121094,179.2976531982422 L456.77301025390625,181.87823486328125 L457.0032958984375,184.42454528808594 L457.2702331542969,186.76690673828125 L457.5474853515625,188.74459838867188 L457.81341552734375,190.25209045410156 L458.0126953125,191.20114135742188 L458.126220703125,191.65907287597656 M448.64337158203125,169.06558227539062 L449.0498962402344,168.74569702148438 L449.9400939941406,168.24729919433594 L451.4053039550781,167.65560913085938 L453.393798828125,167.10646057128906 L455.8006286621094,166.6282958984375 L458.4931335449219,166.2235565185547 L461.34466552734375,165.8682403564453 L464.2041015625,165.56109619140625 L466.8782653808594,165.31871032714844 L469.1767578125,165.1438751220703 L470.7851867675781,165.0419464111328 L471.6568908691406,165.0 M452.2502746582031,181.4212646484375 L452.52593994140625,181.74314880371094 L453.1689758300781,182.17044067382812 L454.25543212890625,182.56546020507812 L455.8150634765625,182.7373809814453 L457.75048828125,182.68283081054688 L459.87567138671875,182.4772491455078 L461.65032958984375,182.26141357421875 L462.78863525390625,182.11257934570312 M472.816650390625,179.71998596191406 L472.5164794921875,179.55348205566406 L471.92864990234375,179.39047241210938 L471.0126647949219,179.3875274658203 L469.8355712890625,179.74456787109375 L468.4687805175781,180.5286865234375 L467.0744323730469,181.73170471191406 L465.8612060546875,183.23629760742188 L465.03387451171875,184.86410522460938 L464.7246398925781,186.41464233398438 L464.9706726074219,187.711669921875 L465.71112060546875,188.59690856933594 L466.8435974121094,188.98265075683594 L468.23333740234375,188.84100341796875 L469.736328125,188.1883544921875 L471.2014465332031,187.10137939453125 L472.4771728515625,185.69703674316406 L473.45538330078125,184.1139373779297 L474.0985107421875,182.5364532470703 L474.4317321777344,181.13851928710938 L474.5409240722656,180.0589141845703 L474.5170593261719,179.4058074951172 L474.4334411621094,179.22824096679688 L474.3419494628906,179.53167724609375 L474.2838134765625,180.3188018798828 L474.27850341796875,181.5216827392578 L474.3468017578125,183.02362060546875 L474.4974365234375,184.68313598632812 L474.7628479003906,186.3430633544922 L475.149169921875,187.83316040039062 L475.64300537109375,189.0376434326172 L476.09423828125,189.83168029785156 L476.4046325683594,190.23019409179688 M483.9537353515625,179.5237579345703 L483.6950378417969,179.3195343017578 L483.1819763183594,179.104736328125 L482.40869140625,179.04396057128906 L481.4534912109375,179.3290557861328 L480.42706298828125,180.0309600830078 L479.4601135253906,181.1293182373047 L478.7024841308594,182.5258026123047 L478.31341552734375,184.08230590820312 L478.4158935546875,185.6312713623047 L479.050048828125,186.9925537109375 L480.18939208984375,188.03692626953125 L481.7771911621094,188.6454620361328 L483.6614685058594,188.80084228515625 L485.6429748535156,188.5597686767578 L487.2519836425781,188.17428588867188 L488.2515869140625,187.84214782714844 M488.94171142578125,184.04562377929688 L489.064453125,184.10731506347656 L489.3838195800781,184.1212615966797 L489.9780578613281,183.988525390625 L490.85003662109375,183.60548400878906 L491.9372863769531,182.96047973632812 L493.1182861328125,182.09097290039062 L494.232421875,181.0870819091797 L495.1222229003906,180.05642700195312 L495.6756591796875,179.1005859375 L495.8274841308594,178.30670166015625 L495.58172607421875,177.76686096191406 L494.9847717285156,177.55899047851562 L494.10272216796875,177.74412536621094 L493.04473876953125,178.35052490234375 L491.9414978027344,179.3394317626953 L490.94903564453125,180.62506103515625 L490.21356201171875,182.09823608398438 L489.83905029296875,183.6332550048828 L489.8582763671875,185.11351013183594 L490.3640441894531,186.4170379638672 L491.35223388671875,187.4215545654297 L492.75848388671875,188.0629119873047 L494.1058654785156,188.37571716308594 L495.06341552734375,188.46282958984375 M504.4564208984375,177.924560546875 L504.1341857910156,177.64517211914062 L503.5066223144531,177.3433837890625 L502.569580078125,177.20309448242188 L501.45648193359375,177.41909790039062 L500.33038330078125,177.99244689941406 L499.3843994140625,178.84669494628906 L498.8095397949219,179.857177734375 L498.751220703125,180.916259765625 L499.27923583984375,181.94053649902344 L500.38739013671875,182.8632049560547 L501.97021484375,183.6498565673828 L503.8207092285156,184.30816650390625 L505.6892395019531,184.8690643310547 L507.33441162109375,185.3650360107422 L508.5694580078125,185.83407592773438 L509.2847595214844,186.28744506835938 L509.4283752441406,186.71942138671875 L508.9994812011719,187.12103271484375 L508.0561218261719,187.47772216796875 L506.69989013671875,187.7748260498047 L505.11553955078125,188.00927734375 L503.5180969238281,188.18724060058594 L502.2721252441406,188.30307006835938 L501.53033447265625,188.36541748046875 M520.599853515625,178.89671325683594 L520.595703125,179.12771606445312 L520.5715942382812,179.68014526367188 L520.5092163085938,180.65203857421875 L520.41748046875,182.06015014648438 L520.3330078125,183.86936950683594 L520.29931640625,185.98651123046875 L520.3486328125,188.26954650878906 L520.4896240234375,190.5452117919922 L520.6940307617188,192.618896484375 L520.9171142578125,194.31329345703125 L521.1161499023438,195.4932403564453 L521.244140625,196.0662841796875 L521.2612915039062,195.98599243164062 L521.1455688476562,195.25064086914062 L520.8990478515625,193.91802978515625 L520.548583984375,192.10189819335938 L520.1717529296875,189.97247314453125 L519.835205078125,187.6847686767578 L519.6092529296875,185.3778076171875 L519.5458984375,183.15127563476562 L519.6817016601562,181.08460998535156 L520.0623168945312,179.2523651123047 L520.7393798828125,177.74105834960938 L521.7081909179688,176.60614013671875 L522.9507446289062,175.90377807617188 L524.38671875,175.66554260253906 L525.896484375,175.896240234375 L527.349609375,176.56385803222656 L528.6090087890625,177.60159301757812 L529.5371704101562,178.89625549316406 L530.0674438476562,180.32554626464844 L530.163330078125,181.7543487548828 L529.838134765625,183.0627899169922 L529.1409301757812,184.1531982421875 L528.1344604492188,184.96047973632812 L526.9152221679688,185.42626953125 L525.6537475585938,185.55361938476562 L524.5269775390625,185.39013671875 L523.7349243164062,185.11781311035156 L523.3211669921875,184.88436889648438 M538.5999755859375,177.77796936035156 L538.4515380859375,177.43234252929688 L538.1007080078125,176.96372985839844 L537.48828125,176.55307006835938 L536.614501953125,176.45159912109375 L535.5307006835938,176.7642059326172 L534.343017578125,177.5191192626953 L533.2001953125,178.63427734375 L532.2534790039062,179.98609924316406 L531.6618041992188,181.41603088378906 L531.5280151367188,182.73583984375 L531.8854370117188,183.78524780273438 L532.6890258789062,184.443115234375 L533.8331909179688,184.62796020507812 L535.1813354492188,184.3230743408203 L536.60498046875,183.57574462890625 L537.966796875,182.46389770507812 L539.1378173828125,181.1202850341797 L540.0287475585938,179.72357177734375 L540.594970703125,178.44520568847656 L540.8582763671875,177.44044494628906 L540.8842163085938,176.8259735107422 L540.7482299804688,176.65264892578125 L540.5384521484375,176.93896484375 L540.340576171875,177.68032836914062 L540.2365112304688,178.79335021972656 L540.301025390625,180.14297485351562 L540.5701293945312,181.56576538085938 L541.0759887695312,182.89068603515625 L541.799560546875,183.9873504638672 L542.6635131835938,184.7864227294922 L543.4208374023438,185.25955200195312 L543.9241943359375,185.46714782714844 M551.561767578125,174.86953735351562 L551.2119140625,174.65257263183594 L550.5354614257812,174.40599060058594 L549.5408325195312,174.2676239013672 L548.383056640625,174.39657592773438 L547.236083984375,174.8096160888672 L546.3060302734375,175.46678161621094 L545.77685546875,176.28317260742188 L545.8015747070312,177.1776580810547 L546.4462280273438,178.06832885742188 L547.6731567382812,178.8907470703125 L549.3395385742188,179.6056671142578 L551.2091064453125,180.21897888183594 L553.0161743164062,180.75682067871094 L554.5202026367188,181.2429962158203 L555.5269165039062,181.68869018554688 L555.9055786132812,182.0938720703125 L555.61083984375,182.45404052734375 L554.6674194335938,182.776123046875 L553.2047119140625,183.05332946777344 L551.4432373046875,183.27008056640625 L549.6459350585938,183.41680908203125 L548.0505981445312,183.4840850830078 L546.826416015625,183.47225952148438 L546.1119384765625,183.3595733642578 L545.9542846679688,183.1291046142578 L546.3316040039062,182.78460693359375 L546.9170532226562,182.4462890625 L547.4287109375,182.2006378173828 M561.7907104492188,174.1583709716797 L561.51025390625,173.89854431152344 L560.9346923828125,173.61019897460938 L560.0437622070312,173.45111083984375 L558.958984375,173.59600830078125 L557.8619384765625,174.04183959960938 L556.9798583984375,174.7355499267578 L556.5167236328125,175.58665466308594 L556.6075439453125,176.5271453857422 L557.3072509765625,177.49478149414062 L558.5941162109375,178.43637084960938 L560.3506469726562,179.3123779296875 L562.3626708984375,180.115966796875 L564.3504638671875,180.85560607910156 L566.0220336914062,181.5275421142578 L567.1563720703125,182.12405395507812 L567.637451171875,182.62005615234375 L567.4197998046875,183.00259399414062 L566.5372314453125,183.26296997070312 L565.084716796875,183.401611328125 L563.1875610351562,183.4137420654297 L561.0745849609375,183.32020568847656 L559.018798828125,183.1584014892578 L557.4480590820312,183.00611877441406 L556.5316162109375,182.90576171875 " fill="none" stroke="black" stroke-linecap="round" stroke-width="2" /><path d="M0,0 M391.5535888671875,248.25877380371094 L391.71490478515625,247.48583984375 L391.99090576171875,246.06280517578125 L392.3661804199219,244.01272583007812 L392.80999755859375,241.56504821777344 L393.32293701171875,238.84642028808594 L393.9076843261719,236.0138702392578 L394.543212890625,233.1882781982422 L395.1885681152344,230.54623413085938 L395.79656982421875,228.27090454101562 L396.3442077636719,226.5161590576172 L396.8013916015625,225.40054321289062 L397.1642761230469,225.0 L397.4222717285156,225.31427001953125 L397.5702819824219,226.35507202148438 L397.624755859375,228.1216583251953 L397.62646484375,230.55772399902344 L397.6220397949219,233.54464721679688 L397.6706848144531,236.8894500732422 L397.80401611328125,240.3311767578125 L398.03826904296875,243.6298065185547 L398.3669738769531,246.5626220703125 L398.752197265625,248.95570373535156 L399.14215087890625,250.72105407714844 L399.4436340332031,251.74671936035156 L399.56646728515625,252.00831604003906 L399.484375,251.5963592529297 L399.3015441894531,250.92002868652344 L399.1221618652344,250.32431030273438 M389.1868896484375,240.15318298339844 L389.1715393066406,240.16513061523438 L389.3262939453125,240.1978302001953 L389.7953796386719,240.2572021484375 L390.66192626953125,240.322509765625 L391.8757629394531,240.37615966796875 L393.3223876953125,240.39183044433594 L394.87091064453125,240.36109924316406 L396.46026611328125,240.25376892089844 L398.0325012207031,240.0598907470703 L399.5157775878906,239.7642059326172 L400.66021728515625,239.47068786621094 L401.3544616699219,239.25204467773438 M405.473388671875,237.3957977294922 L405.4626159667969,237.765380859375 L405.4655456542969,238.49822998046875 L405.4866027832031,239.640869140625 L405.5246276855469,241.11871337890625 L405.5609436035156,242.87110900878906 L405.5762634277344,244.7958526611328 L405.5705871582031,246.7471160888672 L405.567626953125,248.53753662109375 L405.58563232421875,250.00799560546875 L405.6296691894531,251.02133178710938 L405.6898193359375,251.489013671875 L405.7510681152344,251.3621063232422 L405.8232421875,250.63206481933594 L405.9366455078125,249.3392333984375 L406.13616943359375,247.61534118652344 L406.4536437988281,245.629638671875 L406.917724609375,243.5452423095703 L407.55694580078125,241.50762939453125 L408.3839111328125,239.65994262695312 L409.3840637207031,238.131591796875 L410.5033264160156,237.06137084960938 L411.65203857421875,236.55130004882812 L412.7336730957031,236.64553833007812 L413.68231201171875,237.3382568359375 L414.44122314453125,238.56991577148438 L414.9799499511719,240.21434020996094 L415.28973388671875,242.11460876464844 L415.424072265625,244.09872436523438 L415.464111328125,245.9683837890625 L415.5110778808594,247.55709838867188 L415.58026123046875,248.6573028564453 L415.6545715332031,249.24224853515625 M427.53961181640625,241.15945434570312 L427.43011474609375,240.84353637695312 L427.17138671875,240.35252380371094 L426.7022705078125,239.7926483154297 L426.00726318359375,239.3668670654297 L425.0834655761719,239.1922607421875 L424.0039978027344,239.37564086914062 L422.8626403808594,239.96241760253906 L421.7947998046875,240.95787048339844 L420.9179992675781,242.31089782714844 L420.3455505371094,243.92648315429688 L420.1183776855469,245.6566619873047 L420.27264404296875,247.33963012695312 L420.7852783203125,248.80325317382812 L421.6136169433594,249.88882446289062 L422.67010498046875,250.46731567382812 L423.8772888183594,250.4608917236328 L425.1243896484375,249.82444763183594 L426.3390197753906,248.56919860839844 L427.44384765625,246.75033569335938 L428.39410400390625,244.47171020507812 L429.1495361328125,241.88438415527344 L429.7154846191406,239.16671752929688 L430.1020812988281,236.50018310546875 L430.33831787109375,234.05726623535156 L430.4516906738281,231.9766387939453 L430.4795227050781,230.34896850585938 L430.44683837890625,229.24342346191406 L430.3945007324219,228.70352172851562 L430.3544921875,228.77655029296875 L430.3413391113281,229.49671936035156 L430.3578796386719,230.86581420898438 L430.39178466796875,232.80618286132812 L430.43206787109375,235.18753051757812 L430.4842224121094,237.83892822265625 L430.5705261230469,240.5743865966797 L430.70758056640625,243.20697021484375 L430.9061279296875,245.57769775390625 L431.165283203125,247.5545196533203 L431.4857177734375,249.0733642578125 L431.8925476074219,250.09437561035156 L432.39471435546875,250.6200714111328 L432.97064208984375,250.70223999023438 L433.4715576171875,250.54725646972656 L433.8043212890625,250.3405303955078 M450.6307678222656,228.29005432128906 L450.6352233886719,228.5609893798828 L450.61944580078125,229.13528442382812 L450.56585693359375,230.07212829589844 L450.4654235839844,231.35110473632812 L450.3367004394531,232.95655822753906 L450.19573974609375,234.85646057128906 L450.0448913574219,236.99234008789062 L449.8873596191406,239.27163696289062 L449.72021484375,241.5736083984375 L449.554931640625,243.770751953125 L449.4200439453125,245.7610321044922 L449.3538513183594,247.44508361816406 L449.37646484375,248.731689453125 L449.4897155761719,249.57386779785156 L449.6272888183594,250.00738525390625 L449.7368469238281,250.150634765625 M455.4939270019531,227.3226318359375 L455.5791931152344,227.66000366210938 L455.7189636230469,228.36105346679688 L455.87994384765625,229.42312622070312 L456.027099609375,230.72735595703125 L456.15277099609375,232.10719299316406 L456.2665710449219,233.4121551513672 L456.362060546875,234.39498901367188 L456.43182373046875,234.97740173339844 M461.0658874511719,241.50335693359375 L461.14019775390625,241.7815704345703 L461.2374267578125,242.38368225097656 L461.31591796875,243.35853576660156 L461.32098388671875,244.6331024169922 L461.2455139160156,246.08973693847656 L461.1215515136719,247.57034301757812 L461.00909423828125,248.919677734375 L460.938720703125,250.00741577148438 L460.9165954589844,250.7273406982422 L460.91595458984375,251.00987243652344 L460.92279052734375,250.81297302246094 L460.95562744140625,250.10948181152344 L461.0773620605469,248.9225616455078 L461.3570861816406,247.36212158203125 L461.8507995605469,245.5755615234375 L462.5707092285156,243.75364685058594 L463.48785400390625,242.06814575195312 L464.5268249511719,240.65628051757812 L465.6058349609375,239.61392211914062 L466.6357116699219,239.0230712890625 L467.53851318359375,238.92286682128906 L468.2590026855469,239.33172607421875 L468.7624816894531,240.2221221923828 L469.029296875,241.5202178955078 L469.08099365234375,243.1042022705078 L468.96337890625,244.80007934570312 L468.7410888671875,246.39678955078125 L468.494384765625,247.71865844726562 L468.29400634765625,248.622314453125 L468.1857604980469,249.02108764648438 L468.20404052734375,248.88424682617188 L468.3841552734375,248.20611572265625 L468.7646789550781,247.022216796875 L469.3905029296875,245.46804809570312 L470.2867736816406,243.72523498535156 L471.429931640625,242.00210571289062 L472.75640869140625,240.4820098876953 L474.1775207519531,239.30186462402344 L475.5907287597656,238.5502166748047 L476.9095764160156,238.2924041748047 L478.0572814941406,238.5483856201172 L478.97119140625,239.30284118652344 L479.61712646484375,240.49842834472656 L479.9888916015625,242.04653930664062 L480.11480712890625,243.82293701171875 L480.0765075683594,245.677978515625 L479.96337890625,247.45375061035156 L479.9002685546875,248.997802734375 L479.97296142578125,250.1865692138672 L480.20648193359375,250.95851135253906 L480.484619140625,251.349853515625 L480.7088623046875,251.4759521484375 M492.7785339355469,229.2353057861328 L492.8292541503906,229.26109313964844 L492.8946533203125,229.46759033203125 L492.94195556640625,230.01673889160156 L492.931396484375,231.02989196777344 L492.8589172363281,232.5281219482422 L492.7417907714844,234.4501190185547 L492.6125793457031,236.69088745117188 L492.4900817871094,239.12655639648438 L492.3743896484375,241.6302947998047 L492.26007080078125,244.0357666015625 L492.154052734375,246.16310119628906 L492.06280517578125,247.84176635742188 L492.00042724609375,248.9645233154297 L491.969970703125,249.49388122558594 L491.9732666015625,249.45510864257812 L492.02838134765625,248.87744140625 L492.16802978515625,247.81124877929688 L492.4211120605469,246.34349060058594 L492.818603515625,244.61289978027344 L493.37506103515625,242.79258728027344 L494.105712890625,241.0668487548828 L495.01751708984375,239.576904296875 L496.08953857421875,238.4261016845703 L497.2757263183594,237.68727111816406 L498.50567626953125,237.4036865234375 L499.6939392089844,237.58885192871094 L500.7648010253906,238.2341766357422 L501.65447998046875,239.29763793945312 L502.31689453125,240.70318603515625 L502.728515625,242.35182189941406 L502.89825439453125,244.1213836669922 L502.87939453125,245.8780059814453 L502.7547607421875,247.4677276611328 L502.6208190917969,248.7587890625 L502.5356140136719,249.6127166748047 L502.505126953125,250.04464721679688 M513.7498779296875,240.38775634765625 L513.5698852539062,239.9590301513672 L513.1477661132812,239.39169311523438 L512.4005126953125,238.8870391845703 L511.34527587890625,238.7373809814453 L510.04876708984375,239.03880310058594 L508.6619567871094,239.82119750976562 L507.36077880859375,241.01004028320312 L506.3284912109375,242.5154571533203 L505.7071533203125,244.17425537109375 L505.60888671875,245.80491638183594 L506.0646057128906,247.22267150878906 L507.0501708984375,248.27540588378906 L508.46282958984375,248.84422302246094 L510.16119384765625,248.87411499023438 L511.9615478515625,248.3640594482422 L513.6703491210938,247.36178588867188 L515.1166381835938,245.97305297851562 L516.193603515625,244.3565216064453 L516.8514404296875,242.68853759765625 L517.09228515625,241.16064453125 L516.97314453125,239.94203186035156 L516.5826416015625,239.11524963378906 L516.1455078125,238.6711883544922 L515.820556640625,238.50897216796875 M521.041259765625,237.86529541015625 L521.0616455078125,238.00682067871094 L521.092529296875,238.42599487304688 L521.1111450195312,239.24969482421875 L521.076171875,240.51345825195312 L520.957763671875,242.15721130371094 L520.7552490234375,244.0236358642578 L520.5062255859375,245.88601684570312 L520.28466796875,247.52487182617188 L520.1405639648438,248.7464599609375 L520.08935546875,249.41204833984375 L520.1231689453125,249.47210693359375 L520.2434692382812,248.92770385742188 L520.4612426757812,247.81805419921875 L520.8077392578125,246.27027893066406 L521.3073120117188,244.4558563232422 L521.984375,242.57801818847656 L522.84228515625,240.8307647705078 L523.8742065429688,239.37692260742188 L525.0236206054688,238.32106018066406 L526.2117919921875,237.7475128173828 L527.3399658203125,237.69003295898438 L528.328369140625,238.1610107421875 L529.1007080078125,239.11724853515625 L529.6240234375,240.4830322265625 L529.8536376953125,242.11192321777344 L529.8089599609375,243.81980895996094 L529.5423583984375,245.38296508789062 L529.14794921875,246.629638671875 L528.7236328125,247.42784118652344 L528.3727416992188,247.72451782226562 L528.123291015625,247.50550842285156 L528.019287109375,246.79931640625 L528.1029052734375,245.656494140625 L528.4072875976562,244.19496154785156 L528.9688110351562,242.5549774169922 L529.7957763671875,240.90667724609375 L530.8260498046875,239.40737915039062 L531.9774169921875,238.195556640625 L533.1591186523438,237.3712158203125 L534.2646484375,237.00640869140625 L535.2327880859375,237.1358642578125 L536.0064697265625,237.75927734375 L536.5494384765625,238.8289794921875 L536.8441162109375,240.2530059814453 L536.8992919921875,241.89427185058594 L536.74755859375,243.5972900390625 L536.4605712890625,245.21096801757812 L536.1353759765625,246.56658935546875 L535.8768920898438,247.53292846679688 L535.757080078125,248.0445556640625 L535.7510986328125,248.200439453125 L535.8018188476562,248.16481018066406 M538.4752197265625,245.7032012939453 L538.78564453125,245.71630859375 L539.4017333984375,245.62420654296875 L540.3465576171875,245.33181762695312 L541.5214233398438,244.7535858154297 L542.8377685546875,243.89088439941406 L544.1543579101562,242.78097534179688 L545.340576171875,241.50173950195312 L546.27197265625,240.14381408691406 L546.8643798828125,238.8284454345703 L547.053955078125,237.67535400390625 L546.8384399414062,236.81288146972656 L546.23681640625,236.34683227539062 L545.3128662109375,236.3497314453125 L544.166259765625,236.84828186035156 L542.9569091796875,237.81558227539062 L541.857666015625,239.17263793945312 L541.052490234375,240.79525756835938 L540.6646118164062,242.53150939941406 L540.7657470703125,244.21713256835938 L541.363525390625,245.6976318359375 L542.4087524414062,246.85028076171875 L543.7994384765625,247.61595153808594 L545.4059448242188,247.99484252929688 L547.0771484375,247.991455078125 L548.6573486328125,247.65673828125 L550.0211181640625,247.0689697265625 L550.979736328125,246.47457885742188 L551.5038452148438,246.04478454589844 M551.9730834960938,242.2477569580078 L552.474609375,242.19525146484375 L553.467041015625,242.0814971923828 L554.9420166015625,241.9045867919922 L556.7052612304688,241.6761016845703 L558.5160522460938,241.41944885253906 L560.1285400390625,241.1685333251953 L561.2703857421875,240.974853515625 L561.889892578125,240.8582763671875 M566.588623046875,229.42581176757812 L566.7593994140625,229.60154724121094 L567.02392578125,230.01710510253906 L567.3121948242188,230.75970458984375 L567.5123291015625,231.8609161376953 L567.57958984375,233.3284912109375 L567.508544921875,235.1175537109375 L567.342529296875,237.16473388671875 L567.1362915039062,239.37167358398438 L566.9307861328125,241.608154296875 L566.7430419921875,243.6958465576172 L566.5838012695312,245.45968627929688 L566.4656982421875,246.76254272460938 L566.3851318359375,247.5282745361328 L566.3585815429688,247.7493133544922 L566.3990478515625,247.4505615234375 L566.5201416015625,246.64373779296875 L566.7612915039062,245.4031219482422 L567.1842041015625,243.8705291748047 L567.82080078125,242.212890625 L568.7176513671875,240.6160125732422 L569.862060546875,239.22369384765625 L571.2060546875,238.13018798828125 L572.657958984375,237.42730712890625 L574.1055908203125,237.18946838378906 L575.421875,237.44735717773438 L576.5174560546875,238.1851806640625 L577.3084716796875,239.32176208496094 L577.7514038085938,240.7411346435547 L577.8187255859375,242.30686950683594 L577.5001220703125,243.86489868164062 L576.8271484375,245.27944946289062 L575.859619140625,246.4497833251953 L574.6746826171875,247.31472778320312 L573.3648681640625,247.86837768554688 L572.0286865234375,248.1516876220703 L570.7901611328125,248.1859588623047 L569.8052978515625,248.01898193359375 L569.1849365234375,247.70997619628906 L568.907958984375,247.39468383789062 L568.8610229492188,247.1656494140625 M585.5679931640625,240.73727416992188 L585.476318359375,240.25479125976562 L585.2213134765625,239.5413360595703 L584.7337646484375,238.7745361328125 L583.9872436523438,238.2393341064453 L583.0189208984375,238.05783081054688 L581.9061279296875,238.30125427246094 L580.77734375,238.96917724609375 L579.78759765625,240.0409393310547 L579.08984375,241.4407958984375 L578.7910766601562,243.02981567382812 L578.9490966796875,244.63772583007812 L579.5667114257812,246.06753540039062 L580.593994140625,247.13265991210938 L581.95361328125,247.70684814453125 L583.53125,247.72779846191406 L585.1634521484375,247.19525146484375 L586.6634521484375,246.19241333007812 L587.8604736328125,244.84727478027344 L588.6083374023438,243.3283233642578 L588.8426513671875,241.81272888183594 L588.622314453125,240.46768188476562 L588.0934448242188,239.39845275878906 L587.5440673828125,238.70401000976562 L587.1644287109375,238.35458374023438 M592.5081787109375,238.65330505371094 L592.307373046875,238.77090454101562 L591.98193359375,239.09034729003906 L591.5841064453125,239.69927978515625 L591.2222290039062,240.62779235839844 L590.9619140625,241.83778381347656 L590.8665771484375,243.21435546875 L590.9703369140625,244.59507751464844 L591.3214111328125,245.81790161132812 L591.9359741210938,246.72817993164062 L592.798828125,247.20794677734375 L593.877197265625,247.18865966796875 L595.1124877929688,246.64654541015625 L596.4193115234375,245.62069702148438 L597.7086181640625,244.21482849121094 L598.879638671875,242.58554077148438 L599.842529296875,240.9384307861328 L600.553466796875,239.47994995117188 L601.014404296875,238.35153198242188 L601.2515869140625,237.64332580566406 L601.31689453125,237.40118408203125 L601.257568359375,237.64456176757812 L601.1124267578125,238.39723205566406 L600.91357421875,239.62620544433594 L600.7147216796875,241.20108032226562 L600.5670166015625,242.93385314941406 L600.5327758789062,244.61448669433594 L600.64697265625,246.06137084960938 L600.962646484375,247.080810546875 L601.4744873046875,247.5537109375 L602.1541748046875,247.45431518554688 L602.7848510742188,247.0628662109375 L603.225341796875,246.65524291992188 M605.5172729492188,238.2612762451172 L605.5467529296875,238.48593139648438 L605.56201171875,239.0232391357422 L605.5272216796875,239.9466552734375 L605.431640625,241.20745849609375 L605.3062133789062,242.66934204101562 L605.1904296875,244.13412475585938 L605.126953125,245.4044647216797 L605.1119384765625,246.3296356201172 L605.1399536132812,246.806884765625 L605.2257080078125,246.7860870361328 L605.39794921875,246.2603759765625 L605.6981201171875,245.26055908203125 L606.1748657226562,243.89254760742188 L606.83251953125,242.30792236328125 L607.6824340820312,240.68592834472656 L608.7015380859375,239.190673828125 L609.8441162109375,237.95236206054688 L611.047607421875,237.0653839111328 L612.25634765625,236.5995635986328 L613.383056640625,236.58856201171875 L614.3594970703125,237.0360870361328 L615.11279296875,237.890869140625 L615.5994873046875,239.06500244140625 L615.8272094726562,240.4510955810547 L615.8577880859375,241.91700744628906 L615.771240234375,243.34645080566406 L615.6708984375,244.63746643066406 L615.62646484375,245.69857788085938 L615.676025390625,246.47898864746094 L615.775390625,246.95413208007812 L615.870361328125,247.17112731933594 M625.744873046875,241.72824096679688 L625.79833984375,241.31027221679688 L625.76123046875,240.65554809570312 L625.4981079101562,239.8883056640625 L624.89501953125,239.2318572998047 L623.952392578125,238.8068389892578 L622.7539672851562,238.7100067138672 L621.4422607421875,238.995849609375 L620.1533203125,239.68626403808594 L619.016845703125,240.7452850341797 L618.151611328125,242.06629943847656 L617.6563110351562,243.50389099121094 L617.5972900390625,244.88267517089844 L617.989501953125,246.04566955566406 L618.7950439453125,246.83677673339844 L619.9395751953125,247.13633728027344 L621.3228759765625,246.8653564453125 L622.8314208984375,246.00674438476562 L624.3328857421875,244.59544372558594 L625.7095947265625,242.7360382080078 L626.8958740234375,240.54898071289062 L627.8649291992188,238.1750030517578 L628.64501953125,235.76527404785156 L629.2659912109375,233.4718780517578 L629.7269897460938,231.44390869140625 L630.0321044921875,229.805419921875 L630.19482421875,228.63917541503906 L630.2280883789062,228.0032501220703 L630.1810302734375,227.95733642578125 L630.0693359375,228.5363311767578 L629.8995361328125,229.7583770751953 L629.6884765625,231.5657501220703 L629.4547119140625,233.8321533203125 L629.2310791015625,236.36932373046875 L629.0828857421875,238.98184204101562 L629.052490234375,241.46583557128906 L629.191162109375,243.64341735839844 L629.4954833984375,245.3721923828125 L629.916748046875,246.58892822265625 L630.3040771484375,247.28775024414062 L630.5657958984375,247.59010314941406 " fill="none" stroke="black" stroke-linecap="round" stroke-width="2" /></svg>